<svg xmlns="http://www.w3.org/2000/svg" xmlns:xlink="http://www.w3.org/1999/xlink" width="1080" zoomAndPan="magnify" viewBox="0 0 810 1012.49997" height="1350" preserveAspectRatio="xMidYMid meet" version="1.0"><path fill="#6e95c5" d="M 459.71875 275.496094 C 461.15625 275.496094 462.59375 275.480469 464.03125 275.464844 C 469.828125 275.441406 475.019531 276.0625 480.640625 277.636719 L 483.121094 278.234375 C 488.746094 279.738281 493.648438 281.996094 498.742188 284.75 L 498.742188 286.042969 L 499.953125 286.324219 C 501.328125 286.6875 501.328125 286.6875 502.621094 287.335938 L 502.621094 288.628906 L 504.074219 289.15625 C 505.78125 289.890625 507.054688 290.628906 508.4375 291.859375 L 508.4375 293.15625 L 509.582031 293.664062 C 511.125 294.503906 512.15625 295.414062 513.398438 296.648438 L 514.699219 297.945312 L 516.035156 299.296875 L 517.402344 300.648438 L 518.691406 301.941406 L 519.875 303.128906 L 520.722656 304.144531 L 520.722656 305.4375 L 521.878906 305.960938 C 523.320312 306.738281 524.316406 307.546875 525.496094 308.671875 L 526.691406 309.800781 L 527.914062 310.972656 C 528.722656 311.742188 529.53125 312.511719 530.34375 313.277344 L 531.421875 314.3125 C 532.355469 315.203125 532.355469 315.203125 533.652344 315.78125 L 533.652344 317.074219 L 534.746094 317.527344 C 536.628906 318.585938 537.90625 319.902344 539.414062 321.441406 L 541.230469 323.277344 L 543.105469 325.195312 C 544.339844 326.453125 545.574219 327.707031 546.808594 328.957031 L 548.464844 330.644531 C 549.707031 331.972656 549.707031 331.972656 551.109375 332.589844 L 551.109375 333.882812 L 552.402344 333.882812 C 553.226562 334.835938 554.050781 335.792969 554.839844 336.777344 C 556 338.21875 557.308594 339.457031 558.664062 340.710938 L 559.511719 341.640625 L 559.511719 342.933594 L 560.804688 342.933594 L 560.804688 344.226562 L 562.746094 344.875 L 562.746094 346.167969 L 564.039062 346.167969 L 564.039062 347.460938 L 565.976562 348.105469 L 565.976562 349.398438 L 567.269531 349.398438 L 567.269531 350.691406 L 568.5625 350.691406 L 568.5625 351.984375 L 569.855469 351.984375 L 569.855469 353.277344 L 571.796875 353.925781 L 571.796875 355.21875 L 573.089844 355.21875 L 573.089844 356.511719 L 574.382812 356.511719 L 574.382812 357.804688 L 575.632812 358.328125 L 576.96875 359.097656 L 577.613281 361.035156 L 578.90625 361.035156 L 578.90625 362.328125 L 580.070312 362.855469 C 581.496094 363.625 582.441406 364.402344 583.582031 365.542969 L 584.707031 366.660156 L 585.855469 367.824219 L 587.035156 368.988281 L 588.148438 370.109375 L 589.167969 371.128906 L 589.898438 372.027344 L 589.898438 373.320312 L 591.191406 373.320312 L 591.191406 374.613281 L 592.484375 374.613281 L 592.484375 375.90625 L 593.738281 376.429688 L 595.070312 377.199219 L 595.714844 379.136719 L 597.007812 379.136719 L 597.007812 380.429688 L 598.179688 380.957031 C 599.59375 381.722656 600.507812 382.433594 601.535156 383.664062 L 601.535156 384.957031 L 602.597656 385.386719 C 604.621094 386.535156 606.140625 388.085938 607.765625 389.726562 L 608.800781 390.753906 C 609.515625 391.46875 610.230469 392.1875 610.945312 392.90625 C 612.039062 394.007812 613.144531 395.105469 614.246094 396.199219 C 614.941406 396.894531 615.636719 397.59375 616.332031 398.289062 L 617.335938 399.285156 C 618.128906 400.089844 618.886719 400.925781 619.636719 401.765625 L 619.636719 403.058594 L 621.132812 403.585938 C 622.796875 404.320312 623.691406 404.878906 624.808594 406.292969 L 624.808594 407.585938 L 626.101562 407.585938 L 626.101562 408.878906 L 627.394531 408.878906 L 627.394531 410.171875 L 628.53125 410.667969 C 630.132812 411.546875 631.175781 412.523438 632.449219 413.832031 L 633.820312 415.222656 L 635.234375 416.675781 C 636.164062 417.628906 637.09375 418.578125 638.027344 419.527344 L 639.269531 420.804688 C 640.28125 421.863281 640.28125 421.863281 641.617188 422.453125 L 641.617188 423.746094 L 642.910156 423.746094 L 642.910156 425.039062 L 644.203125 425.039062 C 645.253906 425.929688 645.253906 425.929688 646.144531 426.980469 L 646.144531 428.273438 L 647.4375 428.273438 L 647.4375 429.566406 L 648.730469 429.566406 L 648.730469 430.859375 L 650.667969 431.503906 L 650.667969 432.796875 L 651.960938 432.796875 L 651.960938 434.089844 L 653.253906 434.089844 L 654.546875 437.324219 L 655.839844 437.324219 C 658.265625 440.320312 660.507812 443.644531 661.132812 447.503906 C 661.195312 449.457031 660.925781 450.914062 660.082031 452.675781 C 658.675781 454.765625 656.925781 456.027344 654.800781 457.335938 C 650.777344 459.089844 646.894531 459.496094 642.574219 459.476562 L 640.96875 459.484375 C 639.203125 459.496094 637.441406 459.492188 635.675781 459.492188 C 634.40625 459.496094 633.136719 459.5 631.871094 459.503906 C 628.429688 459.515625 624.992188 459.519531 621.554688 459.519531 C 619.40625 459.519531 617.257812 459.523438 615.109375 459.527344 C 607.617188 459.539062 600.121094 459.542969 592.628906 459.542969 C 585.640625 459.542969 578.652344 459.558594 571.664062 459.578125 C 565.664062 459.59375 559.664062 459.601562 553.664062 459.601562 C 550.078125 459.601562 546.496094 459.601562 542.914062 459.617188 C 539.546875 459.628906 536.179688 459.628906 532.8125 459.621094 C 531.574219 459.617188 530.339844 459.621094 529.101562 459.628906 C 527.417969 459.640625 525.730469 459.632812 524.046875 459.625 L 522.558594 459.644531 C 521.183594 459.625 521.183594 459.625 518.78125 459.304688 C 516.527344 457.820312 514.890625 456.074219 513.167969 454.011719 C 511.671875 452.171875 511.671875 452.171875 509.730469 450.898438 L 509.730469 449.605469 L 508.4375 449.605469 L 508.4375 448.3125 L 507.144531 448.3125 C 506.09375 447.425781 506.09375 447.425781 505.207031 446.375 L 505.207031 445.082031 L 503.914062 445.082031 L 503.914062 443.789062 L 502.621094 443.789062 L 502.621094 442.496094 L 500.679688 441.847656 L 500.679688 440.554688 L 499.386719 440.554688 L 499.386719 439.261719 L 498.09375 439.261719 L 498.09375 437.96875 L 496.949219 437.453125 C 495.449219 436.644531 494.410156 435.769531 493.179688 434.59375 L 491.898438 433.378906 L 490.578125 432.109375 C 489.710938 431.28125 488.839844 430.453125 487.96875 429.625 L 486.808594 428.507812 C 485.828125 427.566406 485.828125 427.566406 484.519531 426.980469 L 484.519531 425.6875 L 483.226562 425.6875 L 483.226562 424.394531 L 480.640625 423.101562 L 480.640625 421.808594 L 479.347656 421.808594 L 479.347656 420.515625 L 478.054688 420.515625 L 478.054688 419.222656 L 476.113281 418.574219 L 476.113281 417.28125 L 474.820312 417.28125 L 474.820312 415.988281 L 473.667969 415.476562 C 472.15625 414.65625 471.175781 413.785156 469.976562 412.5625 L 468.71875 411.292969 L 467.425781 409.96875 L 466.140625 408.667969 C 465.316406 407.824219 464.488281 406.984375 463.660156 406.140625 C 462.710938 405.175781 461.75 404.214844 460.785156 403.261719 C 458.855469 401.3125 457.074219 399.246094 455.277344 397.167969 C 454.21875 395.894531 454.21875 395.894531 452.839844 395.300781 L 452.839844 394.007812 L 451.546875 394.007812 L 451.546875 392.714844 L 450.253906 392.714844 L 450.253906 391.421875 L 448.316406 390.773438 L 448.316406 389.480469 L 447.023438 389.480469 L 447.023438 388.1875 L 445.730469 388.1875 C 444.679688 387.300781 444.679688 387.300781 443.789062 386.25 L 443.789062 384.957031 L 442.496094 384.957031 L 442.496094 383.664062 L 441.203125 383.664062 C 440.152344 382.773438 440.152344 382.773438 439.265625 381.722656 L 439.265625 380.429688 L 437.972656 380.429688 L 437.972656 379.136719 L 436.757812 378.976562 L 435.386719 378.492188 C 434.578125 377.160156 434.578125 377.160156 434.09375 375.90625 L 432.796875 375.90625 L 432.796875 374.613281 C 432.4375 374.460938 432.074219 374.308594 431.699219 374.152344 C 427.109375 371.582031 423.460938 366.652344 420.109375 362.648438 C 419.253906 361.601562 419.253906 361.601562 417.929688 361.035156 L 417.929688 359.742188 L 416.636719 359.742188 L 416.636719 358.449219 L 415.34375 358.449219 C 414.292969 357.5625 414.292969 357.5625 413.402344 356.511719 L 413.402344 355.21875 L 412.109375 355.21875 L 412.109375 353.925781 L 410.816406 353.925781 L 410.816406 352.632812 L 408.878906 351.984375 L 408.878906 350.691406 L 407.585938 350.691406 L 407.585938 349.398438 L 405 349.398438 L 405 350.691406 L 403.707031 350.691406 L 403.707031 351.984375 L 402.414062 351.984375 L 401.765625 353.925781 L 400.472656 353.925781 L 400.472656 355.21875 L 399.179688 355.21875 L 399.179688 356.511719 L 397.886719 356.511719 L 397.886719 357.804688 L 396.59375 357.804688 L 395.949219 359.742188 L 394.65625 359.742188 L 394.65625 361.035156 L 393.363281 361.035156 L 392.957031 362.085938 C 391.726562 364.21875 390.097656 365.945312 388.191406 367.5 L 386.898438 367.5 L 386.898438 368.792969 L 385.605469 368.792969 L 385.078125 370.046875 L 384.3125 371.378906 L 382.371094 372.027344 L 382.371094 373.320312 L 381.078125 373.320312 L 381.078125 374.613281 L 379.785156 374.613281 L 379.261719 375.867188 L 378.492188 377.199219 L 376.554688 377.84375 L 376.554688 379.136719 L 375.261719 379.136719 L 375.261719 380.429688 L 373.96875 380.429688 L 373.503906 381.53125 C 372.484375 383.359375 371.242188 384.617188 369.765625 386.097656 L 368.027344 387.839844 L 366.210938 389.644531 L 364.390625 391.476562 L 362.652344 393.210938 L 361.058594 394.800781 L 359.746094 395.949219 L 358.453125 395.949219 L 358.453125 397.242188 L 357.160156 397.242188 L 357.160156 398.535156 L 355.867188 398.535156 L 355.21875 400.472656 L 353.925781 400.472656 L 353.925781 401.765625 L 352.632812 401.765625 L 352.632812 403.058594 L 351.339844 403.058594 L 350.816406 404.230469 C 350.046875 405.644531 349.339844 406.558594 348.109375 407.585938 L 346.816406 407.585938 L 346.289062 408.746094 C 345.519531 410.171875 344.742188 411.117188 343.601562 412.261719 L 342.484375 413.386719 L 341.320312 414.535156 L 340.15625 415.714844 L 339.035156 416.828125 L 338.015625 417.84375 L 337.117188 418.574219 L 335.824219 418.574219 L 335.824219 419.867188 L 334.53125 419.867188 L 334.53125 421.160156 L 333.238281 421.160156 L 332.714844 422.414062 L 331.945312 423.746094 L 330.003906 424.394531 L 330.003906 425.6875 L 328.710938 425.6875 L 328.710938 426.980469 L 327.417969 426.980469 L 326.894531 428.152344 C 326.128906 429.5625 325.417969 430.480469 324.1875 431.503906 L 322.894531 431.503906 L 322.371094 432.757812 L 321.601562 434.089844 L 319.660156 434.738281 C 319.226562 435.597656 318.796875 436.460938 318.367188 437.324219 C 317.324219 438.484375 316.246094 439.617188 315.136719 440.71875 L 313.398438 442.464844 L 311.902344 443.789062 L 310.609375 443.789062 L 310.609375 445.082031 L 309.316406 445.082031 L 308.792969 446.335938 L 308.023438 447.667969 L 306.085938 448.3125 L 306.085938 449.605469 L 304.792969 449.605469 L 304.792969 450.898438 L 303.5 450.898438 L 302.851562 452.839844 L 301.558594 452.839844 L 301.558594 454.132812 L 300.265625 454.132812 L 300.265625 455.425781 L 298.972656 455.425781 L 298.464844 456.570312 C 297.625 458.113281 296.714844 459.144531 295.476562 460.386719 L 294.183594 461.6875 L 292.832031 463.019531 L 291.480469 464.386719 L 290.183594 465.679688 L 289 466.859375 L 287.984375 467.707031 L 286.691406 467.707031 L 286.164062 468.960938 L 285.398438 470.292969 L 283.457031 470.941406 L 283.457031 472.234375 L 282.164062 472.234375 L 282.164062 473.527344 L 280.871094 473.527344 L 280.347656 474.78125 L 279.578125 476.113281 L 277.640625 476.757812 L 277.640625 478.050781 L 276.347656 478.050781 L 276.347656 479.34375 L 275.054688 479.34375 L 274.628906 480.40625 C 273.460938 482.460938 271.875 484.003906 270.203125 485.648438 L 269.226562 486.640625 C 268.394531 487.46875 267.523438 488.257812 266.648438 489.042969 L 265.355469 489.042969 L 265.355469 490.335938 L 264.0625 490.335938 L 264.0625 491.628906 L 262.769531 491.628906 L 262.125 493.570312 L 260.832031 493.570312 L 260.832031 494.863281 L 259.539062 494.863281 L 259.539062 496.15625 L 258.246094 496.15625 L 258.246094 497.449219 L 256.953125 497.449219 L 256.304688 499.386719 L 255.011719 499.386719 L 255.011719 500.679688 L 253.71875 500.679688 L 253.71875 501.972656 L 252.425781 501.972656 L 252.304688 503.0625 C 251.554688 505.199219 250.226562 506.316406 248.546875 507.792969 L 247.253906 507.792969 C 247.460938 509.015625 247.460938 509.015625 247.902344 510.378906 C 249.085938 511.734375 250.324219 513.042969 251.617188 514.296875 L 252.648438 515.332031 C 254.605469 517.265625 256.507812 518.683594 258.890625 520.074219 C 260.054688 521.207031 260.054688 521.207031 261.03125 522.378906 L 262.035156 523.550781 L 262.769531 524.601562 L 262.769531 525.894531 L 263.941406 526.417969 C 265.355469 527.1875 266.269531 527.894531 267.296875 529.125 L 267.296875 530.417969 L 268.433594 530.917969 C 270.035156 531.796875 271.078125 532.769531 272.351562 534.078125 L 273.722656 535.46875 L 275.132812 536.925781 C 276.0625 537.875 276.996094 538.828125 277.925781 539.777344 L 279.171875 541.054688 C 280.183594 542.113281 280.183594 542.113281 281.519531 542.703125 L 281.519531 543.996094 L 282.8125 543.996094 C 283.902344 545.277344 284.980469 546.570312 286.042969 547.875 L 287.335938 548.519531 L 287.335938 549.8125 L 288.628906 549.8125 L 288.628906 551.105469 L 289.921875 551.105469 L 291.214844 554.339844 L 292.507812 554.339844 L 292.507812 555.632812 L 293.628906 556.117188 C 295.320312 557.050781 296.484375 558.140625 297.84375 559.511719 L 299.226562 560.886719 L 300.265625 562.097656 L 300.265625 563.390625 L 301.347656 563.835938 C 303.296875 564.933594 304.671875 566.332031 306.246094 567.914062 L 307.996094 569.652344 L 309.316406 571.148438 L 309.316406 572.441406 L 310.476562 572.96875 C 311.894531 573.730469 312.882812 574.515625 314.050781 575.613281 L 315.253906 576.738281 L 316.511719 577.9375 L 317.808594 579.15625 C 320.890625 582.074219 323.910156 585.050781 326.867188 588.089844 C 327.992188 589.292969 327.992188 589.292969 329.359375 589.898438 L 329.359375 591.191406 L 330.652344 591.191406 C 331.53125 592.253906 332.394531 593.332031 333.238281 594.421875 C 334.941406 596.214844 336.6875 597.847656 338.613281 599.390625 L 340.351562 600.886719 L 340.351562 602.179688 L 341.644531 602.179688 L 341.644531 603.472656 L 343.582031 604.121094 L 343.582031 605.414062 L 344.875 605.414062 L 344.875 606.707031 L 346.167969 606.707031 L 346.167969 608 L 347.21875 608.402344 C 349.347656 609.636719 351.078125 611.261719 352.632812 613.171875 L 352.632812 614.464844 L 353.886719 614.988281 L 355.21875 615.757812 L 355.867188 617.695312 L 357.160156 617.695312 L 357.160156 618.988281 L 358.453125 618.988281 L 358.453125 620.28125 L 359.605469 620.796875 C 361.105469 621.613281 362.074219 622.460938 363.265625 623.679688 L 364.550781 624.972656 L 365.917969 626.375 L 367.347656 627.816406 C 369.363281 629.855469 371.371094 631.898438 373.378906 633.941406 C 374.847656 635.4375 376.320312 636.925781 377.796875 638.414062 L 379.148438 639.796875 C 381.6875 642.363281 384.269531 644.589844 387.242188 646.640625 L 388.191406 647.433594 L 388.191406 648.726562 L 389.484375 648.726562 C 390.574219 650.007812 391.652344 651.300781 392.714844 652.605469 L 394.007812 653.253906 L 394.007812 654.546875 L 395.300781 654.546875 C 396.351562 655.433594 396.351562 655.433594 397.242188 656.484375 L 397.242188 657.777344 L 401.765625 657.777344 L 401.765625 656.484375 C 402.65625 655.433594 402.65625 655.433594 403.707031 654.546875 L 405 654.546875 L 405 653.253906 L 406.292969 653.253906 L 406.292969 651.960938 C 407.183594 651.191406 408.078125 650.425781 409.007812 649.707031 C 410.570312 648.394531 411.964844 646.941406 413.402344 645.496094 C 428.273438 630.625 428.273438 630.625 430.011719 628.910156 C 431.5625 627.386719 431.5625 627.386719 433 625.535156 C 434.667969 623.492188 436.59375 621.847656 438.589844 620.140625 C 441.46875 617.628906 444.074219 614.914062 446.535156 612 C 448.929688 609.214844 451.617188 606.808594 454.359375 604.375 C 456.492188 602.449219 458.496094 600.417969 460.507812 598.371094 C 461.867188 596.984375 463.234375 595.601562 464.597656 594.21875 L 466.015625 592.769531 L 467.375 591.398438 L 468.605469 590.148438 L 469.648438 589.25 L 470.941406 589.25 L 471.410156 588.140625 C 472.410156 586.351562 473.617188 585.136719 475.078125 583.695312 L 476.785156 582 L 478.578125 580.238281 L 480.347656 578.488281 C 481.441406 577.40625 482.535156 576.324219 483.632812 575.246094 C 484.734375 574.15625 485.824219 573.050781 486.894531 571.925781 L 488.398438 570.5 L 489.691406 570.5 L 489.691406 569.207031 L 490.984375 569.207031 L 491.480469 568.074219 C 492.371094 566.449219 493.375 565.378906 494.691406 564.078125 L 496.140625 562.648438 L 497.652344 561.167969 L 499.140625 559.695312 C 500.851562 558.007812 502.566406 556.320312 504.28125 554.636719 C 505.65625 553.28125 506.941406 551.914062 508.117188 550.378906 C 509.742188 548.507812 510.738281 547.625 512.964844 546.582031 C 514.765625 546.398438 516.574219 546.316406 518.386719 546.335938 L 520.035156 546.324219 C 521.859375 546.316406 523.679688 546.324219 525.503906 546.332031 C 526.8125 546.328125 528.117188 546.324219 529.425781 546.320312 C 532.976562 546.3125 536.53125 546.316406 540.082031 546.320312 C 543.800781 546.324219 547.519531 546.320312 551.242188 546.316406 C 557.492188 546.316406 563.742188 546.320312 569.992188 546.328125 C 577.210938 546.339844 584.429688 546.335938 591.644531 546.324219 C 597.847656 546.316406 604.046875 546.3125 610.25 546.320312 C 613.949219 546.324219 617.652344 546.324219 621.351562 546.316406 C 624.835938 546.3125 628.320312 546.316406 631.804688 546.328125 C 633.082031 546.328125 634.355469 546.328125 635.628906 546.324219 C 649.71875 546.28125 649.71875 546.28125 656.164062 549.734375 C 657.917969 551.226562 658.847656 552.203125 659.71875 554.339844 C 659.980469 556.355469 660.121094 557.582031 659.71875 559.511719 C 658.808594 561.296875 657.828125 562.503906 656.488281 564.035156 L 655.195312 564.035156 L 655.195312 565.328125 L 653.902344 565.328125 L 653.375 566.5 C 652.609375 567.914062 651.898438 568.828125 650.667969 569.855469 L 649.375 569.855469 L 649.375 571.148438 L 648.082031 571.148438 L 648.082031 572.441406 L 646.789062 572.441406 L 646.265625 573.695312 L 645.496094 575.027344 L 643.558594 575.671875 L 643.007812 576.777344 C 641.972656 578.839844 640.410156 580.300781 638.789062 581.90625 L 637.761719 582.9375 C 637.042969 583.65625 636.328125 584.371094 635.609375 585.082031 C 634.507812 586.179688 633.40625 587.28125 632.3125 588.386719 L 630.222656 590.472656 L 629.226562 591.476562 C 628.425781 592.269531 627.589844 593.023438 626.746094 593.777344 L 625.453125 593.777344 L 625.453125 595.070312 L 624.160156 595.070312 L 623.636719 596.320312 L 622.867188 597.65625 L 620.929688 598.300781 L 620.929688 599.59375 L 619.636719 599.59375 L 619.636719 600.886719 L 618.34375 600.886719 L 617.828125 602.039062 C 617.011719 603.542969 616.152344 604.53125 614.9375 605.734375 L 613.679688 606.988281 L 612.363281 608.28125 L 611.078125 609.566406 C 609.160156 611.464844 607.234375 613.304688 605.140625 615.011719 C 603.449219 616.234375 603.449219 616.234375 602.828125 617.695312 L 601.535156 617.695312 L 601.535156 618.988281 L 600.242188 618.988281 L 599.714844 620.242188 L 598.949219 621.574219 L 597.007812 622.222656 L 597.007812 623.515625 L 595.714844 623.515625 L 595.269531 624.597656 C 594.179688 626.535156 592.800781 627.890625 591.230469 629.464844 L 590.289062 630.410156 C 589.632812 631.066406 588.976562 631.71875 588.320312 632.371094 C 587.3125 633.375 586.308594 634.382812 585.304688 635.394531 C 584.667969 636.03125 584.03125 636.667969 583.390625 637.304688 L 581.632812 639.058594 L 580.199219 640.324219 L 578.90625 640.324219 L 578.90625 641.617188 L 577.613281 641.617188 L 577.089844 642.871094 L 576.320312 644.203125 L 574.382812 644.847656 L 574.382812 646.140625 L 573.089844 646.140625 L 573.089844 647.433594 L 571.796875 647.433594 L 571.351562 648.527344 C 570.257812 650.449219 568.90625 651.777344 567.269531 653.253906 L 565.976562 653.253906 L 565.976562 654.546875 L 564.683594 654.546875 L 564.203125 655.664062 C 563.257812 657.375 562.144531 658.542969 560.765625 659.929688 L 559.203125 661.496094 L 557.574219 663.113281 L 555.941406 664.757812 L 554.382812 666.3125 L 552.949219 667.742188 L 551.753906 668.769531 L 550.460938 668.769531 L 550.460938 670.0625 L 549.167969 670.0625 L 549.167969 671.355469 C 548.242188 672.242188 548.242188 672.242188 546.945312 673.292969 C 544.972656 674.96875 543.140625 676.785156 541.449219 678.75 C 538.230469 682.417969 534.675781 685.699219 531.085938 689 C 529.078125 690.851562 527.132812 692.671875 525.410156 694.789062 C 524.097656 696.394531 522.792969 697.671875 521.207031 698.992188 C 519.390625 700.46875 519.390625 700.46875 518.136719 702.386719 L 516.84375 702.386719 L 516.84375 703.679688 C 516.007812 704.523438 516.007812 704.523438 514.78125 705.539062 C 512.675781 707.328125 510.613281 709.171875 508.597656 711.066406 C 500.167969 718.957031 492.203125 723.476562 481.296875 727.15625 C 480.152344 727.546875 479.015625 727.960938 477.878906 728.375 C 465.9375 732.675781 451.480469 732.871094 439.039062 730.75 C 429.078125 728.742188 419.75 725.148438 411.464844 719.195312 L 411.464844 717.902344 L 410.171875 717.902344 L 410.171875 716.609375 L 409 716.367188 C 407.585938 715.964844 407.585938 715.964844 405.644531 714.671875 L 405.644531 713.378906 L 404.351562 713.378906 C 403.519531 712.386719 403.519531 712.386719 402.65625 711.113281 L 401.78125 709.839844 L 401.121094 708.851562 C 399.929688 708.964844 399.929688 708.964844 398.535156 709.5 C 397.007812 710.839844 397.007812 710.839844 395.542969 712.449219 C 394.628906 713.429688 393.683594 714.386719 392.714844 715.316406 L 391.421875 715.316406 L 391.421875 717.257812 C 383.152344 724.953125 371.121094 728.339844 360.390625 730.832031 C 355.832031 731.609375 351.308594 731.621094 346.699219 731.632812 C 345.261719 731.640625 343.824219 731.660156 342.386719 731.683594 C 333.890625 731.746094 325.734375 730.699219 317.761719 727.601562 L 315.019531 726.585938 L 313.738281 726.101562 C 311.425781 725.242188 309.078125 724.488281 306.730469 723.722656 L 306.730469 722.429688 L 305.722656 722.265625 C 303.46875 721.574219 301.644531 720.402344 299.621094 719.195312 L 299.621094 717.902344 L 297.679688 717.902344 L 297.679688 716.609375 L 296.558594 716.105469 C 294.957031 715.242188 293.714844 714.25 292.347656 713.054688 L 290.964844 711.863281 L 289.921875 710.792969 L 289.921875 709.5 L 288.628906 709.5 L 288.628906 708.207031 L 287.335938 708.207031 L 287.335938 706.914062 L 286.085938 706.386719 L 284.75 705.621094 L 284.105469 703.679688 L 282.8125 703.679688 L 282.8125 702.386719 L 281.519531 702.386719 L 281.519531 701.09375 L 280.226562 701.09375 L 280.226562 699.800781 L 278.851562 699.4375 C 276.320312 698.171875 274.707031 696.304688 273.113281 693.984375 L 273.113281 692.691406 L 271.820312 692.691406 C 270.773438 691.601562 270.773438 691.601562 269.597656 690.183594 C 268.210938 688.511719 267.1875 687.445312 265.355469 686.222656 L 265.355469 684.929688 L 264.0625 684.929688 L 264.0625 683.636719 L 262.769531 683.636719 C 261.894531 682.789062 261.03125 681.929688 260.183594 681.050781 L 258.890625 680.40625 L 258.890625 679.113281 L 257.640625 678.589844 L 256.304688 677.820312 L 255.660156 675.878906 C 254.808594 675.429688 253.945312 674.996094 253.074219 674.585938 C 251.941406 673.617188 251.941406 673.617188 251.132812 672.648438 L 251.132812 671.355469 L 249.839844 671.355469 L 249.839844 670.0625 L 248.753906 669.621094 C 246.8125 668.519531 245.488281 667.101562 243.941406 665.496094 C 241.925781 663.296875 241.925781 663.296875 239.496094 661.65625 L 239.496094 660.363281 L 237.558594 659.71875 L 237.558594 658.425781 L 236.265625 658.425781 L 236.265625 657.132812 L 234.96875 657.132812 L 234.96875 655.839844 L 233.675781 655.839844 L 233.675781 654.546875 L 232.425781 654.019531 L 231.089844 653.253906 L 230.445312 651.3125 L 229.152344 651.3125 L 229.152344 650.019531 L 227.859375 650.019531 L 227.859375 648.726562 L 226.742188 648.25 C 225.011719 647.289062 223.84375 646.160156 222.449219 644.757812 L 220.835938 643.144531 L 219.171875 641.453125 L 217.515625 639.796875 C 215.28125 637.546875 213.070312 635.316406 211.070312 632.859375 C 209.910156 631.238281 209.910156 631.238281 208.464844 630.625 L 208.464844 629.332031 L 207.171875 629.332031 L 207.171875 628.039062 L 205.878906 628.039062 C 204.828125 627.152344 204.828125 627.152344 203.9375 626.101562 L 203.9375 624.808594 L 202.644531 624.808594 L 202.644531 623.515625 L 201.59375 623.070312 C 199.527344 621.925781 197.933594 620.582031 196.179688 618.988281 L 196.179688 617.695312 L 194.886719 617.695312 C 193.796875 616.414062 192.71875 615.121094 191.65625 613.816406 L 190.363281 613.171875 L 190.363281 611.878906 L 189.070312 611.878906 L 189.070312 610.585938 L 187.777344 610.585938 C 186.902344 609.515625 186.039062 608.441406 185.191406 607.351562 L 183.898438 606.707031 L 183.898438 605.414062 L 182.605469 605.414062 L 182.605469 603.472656 L 181.3125 603.472656 L 180.664062 600.886719 L 179.371094 600.886719 C 174.8125 591.785156 170.386719 582.742188 169.675781 572.441406 L 169.027344 571.148438 C 168.375 562.691406 168.769531 554.136719 170.96875 545.933594 L 171.367188 544.441406 C 174.210938 534.125 178.578125 525.882812 185.191406 517.488281 L 186.25 515.976562 L 187.128906 514.902344 L 188.421875 514.902344 L 188.988281 513.691406 C 189.714844 512.316406 189.714844 512.316406 191.007812 511.023438 C 190.945312 509.730469 190.945312 509.730469 190.363281 508.4375 C 189.464844 507.355469 189.464844 507.355469 188.382812 506.417969 C 187.308594 505.441406 187.308594 505.441406 186.484375 504.558594 L 186.484375 503.265625 L 185.191406 503.265625 L 185.191406 501.972656 L 183.898438 501.972656 L 182.605469 498.742188 L 181.3125 498.742188 L 180.664062 496.15625 L 179.371094 496.15625 C 173 483.632812 168.585938 471.027344 168.910156 456.765625 C 169.757812 442.574219 174.300781 429.414062 182.039062 417.484375 C 184.152344 414.476562 186.351562 411.375 189.070312 408.878906 L 190.363281 408.878906 L 190.363281 407.585938 C 191.574219 406.535156 191.574219 406.535156 192.949219 405.644531 L 194.242188 405.644531 L 194.65625 404.589844 C 195.859375 402.488281 197.511719 400.925781 199.222656 399.242188 L 200.324219 398.148438 C 201.488281 396.992188 202.652344 395.84375 203.816406 394.695312 L 206.148438 392.382812 C 207.582031 390.960938 209.015625 389.539062 210.453125 388.117188 L 211.417969 387.167969 C 212.316406 386.277344 213.214844 385.390625 214.113281 384.503906 C 215.636719 383.003906 215.636719 383.003906 217.070312 381.160156 C 218.316406 379.636719 219.640625 378.375 221.140625 377.105469 C 224.148438 374.503906 226.957031 371.734375 229.757812 368.914062 L 231.261719 367.421875 L 232.683594 365.992188 L 233.96875 364.707031 C 235.023438 363.664062 235.023438 363.664062 235.617188 362.328125 L 236.910156 362.328125 L 236.910156 361.035156 C 238.445312 359.339844 238.445312 359.339844 240.144531 357.804688 L 241.4375 357.804688 L 241.4375 356.511719 L 242.730469 356.511719 L 242.730469 355.21875 C 243.632812 354.328125 243.632812 354.328125 244.910156 353.277344 C 250.660156 348.683594 250.660156 348.683594 255.011719 342.933594 L 256.304688 342.933594 L 256.304688 341.640625 C 257.839844 339.945312 257.839844 339.945312 259.539062 338.410156 L 260.832031 338.410156 L 260.832031 337.117188 C 262.367188 335.417969 262.367188 335.417969 264.0625 333.882812 L 265.355469 333.882812 L 265.355469 332.589844 C 267.609375 330.125 270.132812 327.992188 272.679688 325.835938 C 273.828125 324.886719 273.828125 324.886719 274.40625 323.539062 L 275.699219 323.539062 L 275.699219 322.246094 C 276.589844 321.195312 276.589844 321.195312 277.640625 320.308594 L 278.933594 320.308594 L 278.933594 319.015625 C 280.550781 317.25 282.246094 315.714844 284.105469 314.207031 C 286.09375 312.507812 287.628906 310.699219 289.277344 308.671875 C 290.339844 307.578125 291.417969 306.5 292.507812 305.4375 L 294.246094 303.621094 L 295.742188 302.207031 L 297.035156 302.207031 L 297.035156 300.914062 L 298.328125 300.914062 L 298.328125 299.621094 C 299.214844 298.570312 299.214844 298.570312 300.265625 297.679688 L 301.558594 297.679688 L 301.558594 296.386719 L 302.851562 296.386719 L 302.851562 295.09375 C 312.734375 286.511719 324.386719 280.515625 337.117188 277.636719 L 338.507812 277.292969 C 343.4375 276.15625 348.355469 276.03125 353.402344 276.023438 L 354.773438 276.019531 C 366.859375 276.035156 377.675781 278.722656 388.191406 284.75 C 389.050781 285.1875 389.910156 285.621094 390.777344 286.042969 L 390.777344 287.335938 L 393.363281 287.335938 C 394.484375 288.589844 395.5625 289.882812 396.59375 291.214844 L 397.886719 291.859375 L 397.886719 293.15625 L 398.980469 293.640625 C 400.75 294.597656 402.203125 295.699219 403.707031 297.035156 L 403.707031 298.328125 L 405 298.328125 L 405 299.621094 L 406.453125 298.730469 C 408.230469 297.679688 408.230469 297.679688 409.644531 297.074219 L 410.816406 296.386719 C 411.523438 295.136719 411.523438 295.136719 412.109375 293.800781 C 413.082031 292.667969 413.082031 292.667969 414.050781 291.859375 L 415.34375 291.859375 L 415.34375 290.566406 C 416.878906 289.519531 416.878906 289.519531 418.574219 288.628906 L 419.867188 288.628906 L 419.867188 287.335938 L 421.808594 287.335938 L 421.808594 286.042969 C 431.5 280.601562 431.5 280.601562 436.558594 279.304688 C 437.9375 278.941406 439.195312 278.464844 440.515625 277.921875 C 446.71875 275.578125 453.175781 275.476562 459.71875 275.496094 M 441.6875 316.023438 C 440.660156 316.796875 439.636719 317.578125 438.617188 318.367188 L 436.925781 319.570312 L 435.304688 320.753906 L 433.84375 321.808594 L 432.796875 322.894531 L 432.796875 325.480469 L 434.09375 325.480469 L 434.09375 326.773438 L 435.386719 326.773438 L 435.386719 328.066406 L 436.679688 328.066406 L 436.679688 329.359375 L 437.972656 329.359375 L 438.617188 331.296875 L 439.910156 331.296875 L 439.910156 332.589844 L 441.203125 332.589844 L 441.203125 333.882812 L 442.496094 333.882812 L 442.496094 335.175781 C 443.585938 336.277344 443.585938 336.277344 444.960938 337.398438 C 447.574219 339.601562 447.574219 339.601562 448.726562 340.816406 L 449.609375 341.640625 L 450.902344 341.640625 L 450.902344 342.933594 L 452.195312 342.933594 L 452.195312 344.226562 L 453.488281 344.226562 L 454.132812 346.167969 L 455.425781 346.167969 L 455.425781 347.460938 L 456.71875 347.460938 L 456.71875 348.753906 L 458.011719 348.753906 L 458.539062 350.007812 L 459.304688 351.339844 L 461.246094 351.984375 L 461.246094 353.277344 L 462.539062 353.277344 L 463.183594 355.21875 L 464.476562 355.21875 L 464.558594 356.308594 C 465.0625 357.996094 465.0625 357.996094 466.902344 359.378906 L 467.960938 360.207031 C 469.507812 361.4375 470.855469 362.851562 472.234375 364.269531 L 473.585938 365.613281 C 475.140625 367.171875 476.683594 368.738281 478.214844 370.316406 L 481.285156 373.441406 L 482.839844 375.046875 L 484.355469 376.582031 L 485.722656 377.976562 C 487.199219 379.21875 488.515625 379.820312 490.335938 380.429688 L 490.335938 381.722656 L 491.628906 381.722656 L 492.074219 382.816406 C 493.167969 384.738281 494.519531 386.070312 496.15625 387.542969 L 497.449219 387.542969 L 497.449219 388.835938 L 498.742188 388.835938 L 499.265625 390.089844 L 500.035156 391.421875 L 501.972656 392.070312 L 501.972656 393.363281 L 503.265625 393.363281 L 503.265625 394.65625 L 504.558594 394.65625 L 504.558594 395.949219 L 505.851562 395.949219 L 505.851562 397.242188 L 507.144531 397.242188 L 507.144531 398.535156 L 508.4375 398.535156 L 508.4375 399.828125 L 509.730469 399.828125 L 510.378906 401.765625 L 511.671875 401.765625 L 511.671875 403.058594 L 512.964844 403.058594 L 512.964844 404.351562 L 514.257812 404.351562 L 514.257812 405.644531 C 515.539062 406.734375 516.832031 407.8125 518.136719 408.878906 L 518.78125 410.171875 L 520.074219 410.171875 L 520.074219 411.464844 L 521.367188 411.464844 L 521.367188 412.757812 C 522.328125 413.777344 522.328125 413.777344 523.550781 414.777344 L 524.777344 415.832031 L 525.894531 416.636719 L 527.1875 416.636719 L 527.6875 417.757812 C 528.570312 419.386719 529.554688 420.582031 530.824219 421.929688 L 532.0625 423.289062 C 533.859375 424.535156 535.257812 424.699219 537.402344 424.929688 C 539.636719 425.101562 541.863281 425.125 544.101562 425.113281 L 545.613281 425.113281 C 547.242188 425.113281 548.871094 425.109375 550.5 425.101562 L 553.914062 425.101562 C 556.894531 425.097656 559.875 425.09375 562.855469 425.085938 C 565.902344 425.078125 568.949219 425.074219 571.996094 425.070312 C 577.960938 425.066406 583.929688 425.054688 589.898438 425.039062 L 590.542969 422.453125 L 589.527344 421.578125 C 585.398438 418 585.398438 418 583.511719 416.03125 L 582.140625 414.695312 L 580.847656 414.695312 L 580.847656 413.402344 L 579.554688 413.402344 L 579.027344 412.152344 L 578.261719 410.816406 L 576.320312 410.171875 L 576.320312 408.878906 L 575.027344 408.878906 L 575.027344 407.585938 L 573.734375 407.585938 L 573.210938 406.332031 L 572.441406 405 L 570.503906 404.351562 C 570.058594 403.019531 570.058594 403.019531 569.855469 401.765625 L 568.5625 401.765625 L 568.5625 400.472656 L 567.269531 400.472656 L 566.625 398.535156 L 565.332031 398.535156 L 565.332031 397.242188 L 564.039062 397.242188 L 564.039062 395.949219 L 562.746094 395.949219 L 562.097656 394.007812 L 560.804688 394.007812 L 560.804688 392.714844 L 559.511719 392.714844 L 558.867188 390.773438 L 557.574219 390.773438 L 557.574219 389.480469 L 556.28125 389.480469 L 556.28125 388.1875 L 554.988281 388.1875 L 554.988281 386.894531 C 554.125 385.820312 554.125 385.820312 553.046875 384.957031 L 551.753906 384.957031 L 551.753906 383.664062 L 550.460938 383.664062 L 550.460938 382.371094 C 549.597656 381.292969 549.597656 381.292969 548.523438 380.429688 L 547.230469 380.429688 L 547.230469 379.136719 L 545.9375 379.136719 L 545.9375 377.84375 C 544.425781 376.121094 544.425781 376.121094 542.703125 374.613281 L 541.410156 374.613281 L 541.410156 373.320312 C 540.464844 372.503906 539.519531 371.695312 538.546875 370.914062 C 537.257812 369.863281 536.125 368.679688 534.945312 367.5 C 533.636719 366.347656 532.320312 365.203125 531 364.066406 C 530.042969 363.214844 529.128906 362.316406 528.238281 361.402344 L 527.1875 360.390625 L 525.894531 360.390625 L 525.894531 359.097656 L 524.601562 359.097656 L 524.078125 357.925781 C 523.308594 356.511719 522.601562 355.597656 521.367188 354.570312 L 520.074219 354.570312 L 520.074219 353.277344 L 518.78125 353.277344 L 518.78125 351.984375 L 517.488281 351.984375 L 517.488281 350.691406 C 516.441406 349.589844 515.363281 348.511719 514.257812 347.460938 L 513.167969 346.289062 L 512.316406 345.519531 L 511.023438 345.519531 L 511.023438 344.226562 C 510.164062 343.148438 510.164062 343.148438 509.085938 342.289062 L 507.792969 342.289062 L 507.792969 340.996094 L 506.5 340.996094 L 506.5 339.703125 C 505.636719 338.625 505.636719 338.625 504.558594 337.761719 L 503.265625 337.761719 L 503.265625 336.46875 L 501.972656 336.46875 L 501.972656 335.175781 L 500.4375 334.734375 L 498.742188 333.882812 C 497.894531 332.1875 497.894531 332.1875 497.449219 330.652344 L 496.15625 330.652344 L 496.15625 329.359375 L 494.863281 329.359375 L 494.863281 328.066406 C 493.859375 327.050781 493.859375 327.050781 492.558594 326.003906 C 490.746094 324.46875 489.035156 322.90625 487.386719 321.195312 C 482.875 316.664062 477.449219 313.707031 471.589844 311.257812 C 469.390625 310.667969 467.390625 310.605469 465.125 310.609375 C 464.226562 310.566406 463.332031 310.519531 462.433594 310.472656 C 454.488281 310.140625 448.386719 311.472656 441.6875 316.023438 M 332.589844 317.074219 L 332.589844 318.367188 L 331.421875 318.609375 C 329.835938 318.984375 329.835938 318.984375 328.066406 320.308594 L 328.066406 321.601562 L 327.027344 322.003906 C 324.828125 323.269531 323.210938 324.976562 321.441406 326.773438 L 320.355469 327.84375 C 319.449219 328.753906 318.582031 329.699219 317.722656 330.652344 L 317.722656 331.945312 L 316.601562 332.429688 C 314.910156 333.363281 313.746094 334.453125 312.390625 335.824219 L 311.003906 337.195312 L 309.964844 338.410156 L 309.964844 339.703125 L 308.921875 340.105469 C 306.726562 341.371094 305.109375 343.078125 303.335938 344.875 L 302.25 345.945312 C 301.347656 346.855469 300.480469 347.800781 299.621094 348.753906 L 299.621094 350.046875 L 298.328125 350.046875 L 298.328125 351.339844 L 296.386719 351.984375 L 296.386719 353.277344 L 295.09375 353.277344 L 295.09375 354.570312 L 293.921875 355.097656 C 292.511719 355.863281 291.59375 356.574219 290.570312 357.804688 L 290.570312 359.097656 L 289.277344 359.097656 C 288.507812 359.820312 287.746094 360.550781 287.019531 361.316406 C 286.300781 362.058594 285.570312 362.789062 284.828125 363.507812 C 284.414062 363.90625 284.003906 364.304688 283.578125 364.714844 L 282.394531 365.851562 L 281.519531 366.855469 L 281.519531 368.148438 L 280.226562 368.148438 C 278.5 369.65625 278.5 369.65625 276.992188 371.378906 L 276.992188 372.671875 L 275.699219 372.671875 L 275.699219 373.964844 L 274.40625 373.964844 C 273.613281 374.90625 272.832031 375.855469 272.0625 376.816406 C 270.851562 378.222656 269.390625 379.273438 267.941406 380.429688 L 267.941406 381.722656 L 266.648438 381.722656 L 266.648438 383.015625 L 265.355469 383.015625 C 263.632812 384.527344 263.632812 384.527344 262.125 386.25 L 262.125 387.542969 L 260.832031 387.542969 L 260.832031 388.835938 L 259.539062 388.835938 C 258.460938 389.699219 258.460938 389.699219 257.597656 390.773438 L 257.597656 392.070312 L 256.304688 392.070312 C 254.582031 393.578125 254.582031 393.578125 253.074219 395.300781 L 253.074219 396.59375 L 251.78125 396.59375 C 250.054688 398.101562 250.054688 398.101562 248.546875 399.828125 L 248.546875 401.121094 L 247.253906 401.121094 L 247.253906 402.414062 L 245.316406 403.058594 L 245.316406 404.351562 L 244.023438 404.351562 L 244.023438 405.644531 L 242.730469 405.644531 C 241.636719 406.925781 240.558594 408.21875 239.496094 409.523438 L 238.203125 410.171875 L 238.203125 411.464844 L 236.910156 411.464844 C 235.808594 412.578125 235.808594 412.578125 234.6875 413.96875 C 233.300781 415.640625 232.277344 416.707031 230.445312 417.929688 L 230.445312 419.222656 L 229.152344 419.222656 C 228.09375 420.289062 228.09375 420.289062 227.011719 421.644531 C 225.28125 423.695312 223.503906 425.316406 221.394531 426.980469 L 221.394531 428.273438 L 220.101562 428.273438 L 220.101562 429.566406 L 218.808594 429.566406 C 213.5625 434.527344 209.480469 441.09375 207.050781 447.871094 C 205.597656 454.464844 205.152344 461.753906 207.078125 468.292969 C 207.6875 469.851562 208.367188 471.378906 209.109375 472.878906 L 209.710938 474.136719 C 210.144531 475.019531 210.589844 475.890625 211.050781 476.757812 L 212.34375 476.757812 L 212.34375 478.050781 L 213.636719 478.050781 L 214.160156 479.507812 C 214.898438 481.214844 215.636719 482.484375 216.867188 483.871094 L 218.160156 483.871094 L 218.160156 485.164062 C 219.699219 484.886719 220.699219 484.550781 221.992188 483.652344 L 223.171875 482.617188 L 224.375 481.589844 L 225.273438 480.636719 L 225.273438 479.34375 L 226.566406 479.34375 L 226.566406 478.050781 L 227.859375 478.050781 C 229.582031 476.542969 229.582031 476.542969 231.089844 474.820312 L 231.089844 473.527344 L 232.382812 473.527344 L 232.382812 472.234375 L 233.675781 472.234375 C 234.753906 471.371094 234.753906 471.371094 235.617188 470.292969 L 235.617188 469 L 236.910156 469 L 236.910156 467.707031 L 238.203125 467.707031 C 239.925781 466.199219 239.925781 466.199219 241.4375 464.476562 L 241.4375 463.183594 L 242.730469 463.183594 C 243.804688 462.320312 243.804688 462.320312 244.667969 461.242188 L 244.667969 459.949219 L 245.960938 459.949219 L 245.960938 458.65625 L 247.253906 458.65625 C 248.332031 457.796875 248.332031 457.796875 249.195312 456.71875 L 249.195312 455.425781 L 250.488281 455.425781 L 250.488281 454.132812 L 251.78125 454.132812 C 252.855469 453.269531 252.855469 453.269531 253.71875 452.191406 L 253.71875 450.898438 L 255.011719 450.898438 L 255.011719 449.605469 L 256.304688 449.605469 C 257.382812 448.746094 257.382812 448.746094 258.246094 447.667969 L 258.246094 446.375 L 259.539062 446.375 L 259.539062 445.082031 L 260.832031 445.082031 L 260.832031 443.789062 L 262.125 443.789062 C 263.203125 442.925781 263.203125 442.925781 264.0625 441.847656 L 264.0625 440.554688 L 265.355469 440.554688 L 265.355469 439.261719 L 266.648438 439.261719 C 267.726562 438.402344 267.726562 438.402344 268.589844 437.324219 L 268.589844 436.03125 L 269.882812 436.03125 C 271.605469 434.523438 271.605469 434.523438 273.113281 432.796875 L 273.113281 431.503906 L 274.40625 431.503906 C 275.484375 430.644531 275.484375 430.644531 276.347656 429.566406 L 276.347656 428.273438 L 277.640625 428.273438 L 277.640625 426.980469 L 278.933594 426.980469 L 278.933594 425.6875 L 280.226562 425.6875 C 281.304688 424.824219 281.304688 424.824219 282.164062 423.746094 L 282.164062 422.453125 L 283.457031 422.453125 L 283.457031 421.160156 L 284.75 421.160156 L 284.75 419.867188 L 286.691406 419.222656 L 286.691406 417.929688 L 287.984375 417.929688 L 287.984375 416.636719 L 289.277344 416.636719 L 289.277344 415.34375 L 291.214844 414.695312 L 291.214844 413.402344 L 292.507812 413.402344 L 292.507812 412.109375 L 293.800781 412.109375 C 294.878906 411.246094 294.878906 411.246094 295.742188 410.171875 L 295.742188 408.878906 L 297.035156 408.878906 L 297.035156 407.585938 L 298.328125 407.585938 C 299.40625 406.722656 299.40625 406.722656 300.265625 405.644531 L 300.265625 404.351562 L 301.558594 404.351562 L 301.558594 403.058594 L 302.851562 403.058594 L 302.851562 401.765625 L 304.792969 401.121094 L 304.792969 399.828125 L 306.085938 399.828125 L 306.085938 398.535156 L 307.378906 398.535156 L 307.378906 397.242188 L 308.671875 397.242188 L 308.671875 395.949219 L 310.609375 395.300781 L 310.609375 394.007812 L 311.902344 394.007812 L 311.902344 392.714844 L 313.195312 392.714844 L 313.195312 391.421875 L 315.136719 390.773438 L 315.136719 389.480469 L 316.429688 389.480469 L 316.429688 388.1875 L 317.722656 388.1875 C 318.800781 387.328125 318.800781 387.328125 319.660156 386.25 L 319.660156 384.957031 L 320.953125 384.957031 C 322.679688 383.449219 322.679688 383.449219 324.1875 381.722656 L 324.1875 380.429688 L 325.480469 380.429688 L 325.480469 379.136719 L 326.773438 379.136719 C 327.851562 378.277344 327.851562 378.277344 328.710938 377.199219 L 328.710938 375.90625 L 330.003906 375.90625 L 330.003906 374.613281 L 331.296875 374.613281 L 331.296875 373.320312 L 332.589844 373.320312 C 333.667969 372.457031 333.667969 372.457031 334.53125 371.378906 L 334.53125 370.085938 L 335.824219 370.085938 L 335.824219 368.792969 L 337.117188 368.792969 L 337.117188 367.5 L 339.058594 366.855469 L 339.058594 365.5625 L 340.351562 365.5625 C 342.074219 364.054688 342.074219 364.054688 343.582031 362.328125 L 343.582031 361.035156 L 344.875 361.035156 C 345.953125 360.175781 345.953125 360.175781 346.816406 359.097656 L 346.816406 357.804688 L 348.109375 357.804688 L 348.109375 356.511719 L 349.402344 356.511719 L 349.402344 355.21875 L 351.339844 354.570312 L 351.339844 353.277344 L 352.632812 353.277344 L 352.632812 351.984375 L 353.925781 351.984375 L 353.925781 350.691406 L 355.21875 350.691406 L 355.21875 349.398438 L 357.160156 348.753906 L 357.160156 347.460938 L 358.453125 347.460938 L 358.453125 346.167969 L 359.746094 346.167969 L 359.746094 344.875 L 360.996094 344.347656 L 362.332031 343.582031 L 362.976562 341.640625 L 364.269531 341.640625 L 364.269531 340.347656 L 366.210938 339.703125 L 366.210938 338.410156 L 367.503906 338.410156 L 367.503906 337.117188 L 368.753906 336.589844 L 370.089844 335.824219 L 370.734375 333.882812 L 372.027344 333.882812 C 373.085938 332.8125 373.085938 332.8125 374.171875 331.460938 C 375.539062 329.835938 376.730469 328.574219 378.414062 327.257812 C 379.847656 326.234375 379.847656 326.234375 380.433594 324.792969 L 380.433594 323.539062 C 379.636719 322.367188 379.636719 322.367188 378.492188 321.601562 L 377.199219 321.601562 L 377.199219 320.308594 C 372.117188 316.402344 365.644531 312.785156 359.320312 311.4375 C 349.289062 310.234375 341.335938 312.285156 332.589844 317.074219 M 218.808594 534.296875 C 214.035156 537.488281 210.789062 543.183594 208.300781 548.222656 C 206.003906 553.558594 204.675781 559.503906 205.230469 565.328125 C 205.601562 567.710938 206.035156 570.082031 206.523438 572.441406 L 207.816406 572.441406 L 207.980469 574.378906 C 208.375 577.273438 209.640625 579.613281 211.050781 582.136719 L 212.34375 582.136719 L 212.34375 584.078125 L 213.636719 584.078125 L 214.164062 585.242188 C 214.929688 586.667969 215.710938 587.609375 216.847656 588.753906 L 217.96875 589.878906 L 219.132812 591.027344 L 220.296875 592.207031 L 221.414062 593.320312 L 222.4375 594.335938 L 223.332031 595.070312 L 224.625 595.070312 L 224.625 596.363281 L 225.917969 596.363281 L 226.445312 597.613281 L 227.210938 598.949219 L 229.152344 599.59375 L 229.152344 600.886719 L 230.445312 600.886719 L 230.445312 602.179688 L 231.738281 602.179688 L 231.738281 603.472656 C 232.601562 604.550781 232.601562 604.550781 233.675781 605.414062 L 234.96875 605.414062 L 234.96875 606.707031 L 236.265625 606.707031 L 236.910156 608.644531 L 238.203125 608.644531 L 238.203125 609.9375 C 239.273438 610.996094 239.273438 610.996094 240.628906 612.078125 C 242.675781 613.808594 244.300781 615.585938 245.960938 617.695312 L 247.253906 617.695312 L 247.253906 618.988281 L 248.546875 618.988281 L 248.546875 620.28125 C 249.65625 621.453125 249.65625 621.453125 251.050781 622.625 L 252.460938 623.863281 L 253.71875 624.808594 L 255.011719 624.808594 L 255.011719 626.101562 L 256.304688 626.101562 L 256.304688 627.394531 L 257.597656 627.394531 L 257.597656 628.6875 C 258.527344 629.625 258.527344 629.625 259.765625 630.609375 C 263.839844 634.074219 267.507812 637.945312 271.242188 641.765625 L 272.925781 643.472656 L 274.449219 645.027344 L 275.699219 646.140625 L 276.992188 646.140625 L 276.992188 647.433594 L 278.285156 647.433594 L 278.285156 648.726562 L 279.578125 648.726562 L 280.226562 650.667969 L 281.519531 650.667969 L 281.519531 651.960938 L 282.8125 651.960938 L 282.8125 653.253906 L 284.105469 653.253906 L 285.398438 656.484375 L 286.691406 656.484375 L 286.691406 657.777344 L 287.984375 657.777344 L 287.984375 659.070312 C 289.097656 660.171875 289.097656 660.171875 290.488281 661.292969 C 292.160156 662.683594 293.226562 663.707031 294.449219 665.535156 L 295.742188 665.535156 L 295.742188 666.828125 C 297.25 668.554688 297.25 668.554688 298.972656 670.0625 L 300.265625 670.0625 L 300.265625 671.355469 L 301.558594 671.355469 L 301.558594 672.648438 C 302.496094 673.597656 302.496094 673.597656 303.742188 674.585938 C 305.921875 676.4375 307.957031 678.367188 309.964844 680.40625 C 312.324219 682.800781 314.78125 685.089844 317.339844 687.273438 C 318.140625 687.972656 318.914062 688.703125 319.660156 689.457031 L 321.601562 689.457031 L 321.601562 690.75 C 322.621094 691.292969 323.644531 691.832031 324.671875 692.367188 L 326.398438 693.273438 C 328.160156 694.152344 328.160156 694.152344 330.652344 693.984375 L 330.652344 695.277344 L 333.882812 695.277344 L 333.882812 696.570312 C 342.683594 697.761719 351.398438 697.757812 359.785156 694.546875 C 364.445312 692.488281 369.335938 689.5 372.675781 685.578125 C 372.679688 684.1875 372.679688 684.1875 372.027344 682.992188 L 370.089844 682.34375 L 369.441406 680.40625 L 368.148438 680.40625 L 367.503906 678.464844 L 366.210938 678.464844 L 366.210938 677.171875 L 364.917969 677.171875 L 364.917969 675.878906 L 363.625 675.878906 L 363.625 674.585938 C 362.761719 673.511719 362.761719 673.511719 361.683594 672.648438 L 360.390625 672.648438 L 360.390625 671.355469 L 359.097656 671.355469 L 359.097656 670.0625 L 357.804688 670.0625 L 357.804688 668.769531 C 356.296875 667.046875 356.296875 667.046875 354.574219 665.535156 L 353.28125 665.535156 L 353.28125 664.242188 C 352.300781 663.25 352.300781 663.25 351.015625 662.222656 C 348.527344 660.121094 346.257812 657.875 344.011719 655.519531 L 342.9375 654.546875 L 341.644531 654.546875 L 341.117188 653.375 C 340.351562 651.960938 339.640625 651.046875 338.410156 650.019531 L 337.117188 650.019531 L 337.117188 648.726562 L 335.824219 648.726562 L 335.179688 646.789062 L 333.882812 646.789062 L 333.882812 645.496094 L 332.589844 645.496094 L 332.058594 644.324219 C 331.320312 642.949219 330.605469 642.050781 329.511719 640.953125 L 328.425781 639.855469 L 327.257812 638.695312 L 326.054688 637.492188 C 325.21875 636.652344 324.378906 635.816406 323.539062 634.980469 C 322.246094 633.695312 320.964844 632.40625 319.683594 631.117188 L 317.238281 628.675781 L 316.070312 627.5 C 315.136719 626.578125 314.167969 625.6875 313.195312 624.808594 L 311.902344 624.808594 L 311.902344 623.515625 L 310.609375 623.515625 L 310.085938 622.261719 L 309.316406 620.929688 L 307.378906 620.28125 L 307.378906 618.988281 L 306.085938 618.988281 L 306.085938 617.695312 L 304.792969 617.695312 L 304.34375 616.605469 C 303.261719 614.6875 301.886719 613.375 300.308594 611.835938 L 298.59375 610.15625 L 297.035156 608.644531 L 295.941406 607.476562 L 295.09375 606.707031 L 293.800781 606.707031 L 293.800781 605.414062 L 292.507812 605.414062 L 292.507812 604.121094 C 291.648438 603.042969 291.648438 603.042969 290.570312 602.179688 L 289.277344 602.179688 L 289.277344 600.886719 L 287.984375 600.886719 L 287.984375 599.59375 L 286.691406 599.59375 L 286.042969 597.65625 L 284.75 597.65625 L 284.75 596.363281 L 283.457031 596.363281 L 283.457031 595.070312 L 282.164062 595.070312 L 282.164062 593.777344 L 280.226562 593.128906 L 279.578125 591.835938 L 278.285156 591.835938 L 278.285156 590.542969 C 277.328125 589.519531 277.328125 589.519531 276.105469 588.523438 L 274.878906 587.46875 L 273.761719 586.664062 L 272.46875 586.664062 L 272.46875 585.371094 L 271.175781 585.371094 L 270.6875 584.246094 C 269.761719 582.566406 268.683594 581.433594 267.324219 580.078125 L 265.789062 578.546875 L 264.183594 576.964844 L 262.601562 575.386719 C 259.730469 572.523438 259.730469 572.523438 256.652344 569.886719 C 254.898438 568.46875 253.355469 566.945312 251.78125 565.328125 L 250.128906 563.65625 L 248.398438 561.902344 L 245.53125 559.007812 C 244.871094 558.34375 244.210938 557.675781 243.554688 557.007812 C 242.597656 556.035156 241.640625 555.070312 240.679688 554.105469 L 238.957031 552.359375 L 237.558594 551.105469 L 236.265625 551.105469 L 236.265625 549.8125 L 234.96875 549.8125 L 234.96875 548.519531 L 233.675781 548.519531 L 233.152344 547.269531 L 232.382812 545.933594 L 230.445312 545.289062 L 230.445312 543.996094 L 229.152344 543.996094 L 228.667969 542.875 C 227.734375 541.183594 226.640625 540.019531 225.273438 538.660156 L 223.898438 537.277344 L 222.6875 536.238281 L 221.394531 536.238281 L 221.394531 534.945312 C 220.230469 534.425781 220.230469 534.425781 218.808594 534.296875 M 527.832031 581.492188 C 526.75 582.375 526.75 582.375 525.894531 583.429688 L 524.917969 584.546875 L 523.875 585.773438 C 516.964844 593.714844 516.964844 593.714844 514.257812 595.070312 L 514.257812 596.363281 L 512.964844 596.363281 L 512.964844 597.65625 L 511.804688 598.164062 C 510.285156 599 509.40625 599.839844 508.253906 601.132812 L 507.0625 602.445312 C 506.652344 602.902344 506.238281 603.363281 505.8125 603.835938 C 501.980469 608.019531 498.09375 611.675781 493.570312 615.109375 C 490.332031 617.617188 487.546875 620.28125 485.527344 623.878906 C 484.316406 625.773438 482.871094 626.953125 481.148438 628.375 C 479.589844 629.671875 478.125 631.066406 476.761719 632.566406 L 476.761719 633.859375 L 475.46875 633.859375 L 475.46875 635.152344 L 474.175781 635.152344 C 473.097656 636.011719 473.097656 636.011719 472.234375 637.089844 L 472.234375 638.382812 L 470.941406 638.382812 L 470.941406 639.675781 L 469.800781 640.152344 C 468.105469 641.113281 467.175781 642.183594 465.933594 643.675781 C 463.890625 646.042969 461.773438 648.082031 459.394531 650.101562 C 455.332031 653.667969 451.644531 657.605469 448.125 661.699219 C 444.984375 665.257812 441.53125 668.441406 437.941406 671.53125 C 435.917969 673.320312 434.039062 675.242188 432.152344 677.171875 L 431.054688 678.195312 C 430.777344 678.496094 430.5 678.800781 430.210938 679.113281 L 430.210938 680.40625 L 428.917969 680.40625 L 428.917969 681.699219 L 427.625 681.699219 L 426.980469 684.285156 L 428.273438 684.285156 L 428.273438 685.578125 L 429.566406 685.578125 L 429.566406 686.871094 L 432.796875 688.164062 L 432.796875 689.457031 L 434.003906 690.117188 L 435.585938 690.992188 L 437.15625 691.855469 C 438.316406 692.519531 439.445312 693.242188 440.558594 693.984375 C 447.210938 696.195312 454.015625 697.394531 460.972656 696.15625 C 463.222656 695.671875 465.46875 695.160156 467.710938 694.628906 C 468.785156 694.40625 469.863281 694.191406 470.941406 693.984375 L 470.941406 692.691406 C 471.511719 692.628906 472.085938 692.566406 472.675781 692.503906 C 475.003906 692.003906 476.234375 691.273438 478.132812 689.859375 L 479.753906 688.675781 L 481.285156 687.515625 L 482.777344 686.480469 L 483.871094 685.578125 L 483.871094 684.285156 L 485.164062 684.285156 L 485.164062 682.992188 L 486.324219 682.472656 C 487.792969 681.675781 488.730469 680.867188 489.894531 679.679688 L 491.082031 678.457031 C 492.242188 677.210938 493.355469 675.929688 494.457031 674.628906 C 496.523438 672.226562 498.789062 670.15625 501.191406 668.09375 C 502.8125 666.660156 504.328125 665.132812 505.851562 663.597656 L 508.21875 661.222656 L 509.539062 659.894531 C 511.496094 657.929688 513.457031 655.964844 515.417969 653.996094 L 518.523438 650.878906 C 520.019531 649.375 521.515625 647.875 523.011719 646.375 L 524.417969 644.957031 L 525.71875 643.65625 C 526.097656 643.277344 526.476562 642.898438 526.867188 642.507812 C 527.832031 641.617188 527.832031 641.617188 529.125 640.96875 L 529.125 639.675781 L 530.417969 639.675781 C 532.144531 638.167969 532.144531 638.167969 533.652344 636.445312 L 533.652344 635.152344 L 534.945312 635.152344 L 534.945312 633.859375 L 536.238281 633.859375 C 537.296875 632.789062 537.296875 632.789062 538.378906 631.433594 C 540.117188 629.382812 541.886719 627.765625 543.996094 626.101562 C 544.78125 625.15625 545.554688 624.207031 546.324219 623.246094 C 547.6875 621.703125 549.269531 620.457031 550.878906 619.179688 L 551.753906 618.34375 L 551.753906 617.050781 L 553.046875 617.050781 L 553.046875 615.757812 L 554.988281 615.109375 L 554.988281 613.171875 L 557.574219 612.523438 L 557.574219 611.230469 L 558.613281 610.828125 C 560.808594 609.5625 562.429688 607.855469 564.199219 606.058594 L 565.285156 604.988281 C 566.191406 604.078125 567.058594 603.132812 567.917969 602.179688 L 567.917969 600.886719 L 568.996094 600.449219 C 570.976562 599.324219 572.34375 597.886719 573.9375 596.261719 L 574.914062 595.273438 C 575.9375 594.238281 576.960938 593.199219 577.976562 592.160156 C 579 591.117188 580.023438 590.082031 581.046875 589.042969 C 581.976562 588.101562 582.902344 587.160156 583.828125 586.214844 C 585.371094 584.722656 585.371094 584.722656 587.3125 583.429688 L 587.3125 581.492188 C 579.589844 581.445312 571.867188 581.414062 564.148438 581.390625 C 560.5625 581.382812 556.976562 581.367188 553.390625 581.347656 C 549.933594 581.324219 546.476562 581.3125 543.015625 581.308594 C 541.695312 581.304688 540.375 581.296875 539.054688 581.285156 C 537.207031 581.273438 535.359375 581.269531 533.511719 581.273438 L 531.851562 581.25 C 530.160156 581.238281 530.160156 581.238281 527.832031 581.492188 " fill-opacity="1" fill-rule="nonzero"/></svg>